<svg width="40" height="40" viewBox="0 0 40 40" fill="none" xmlns="http://www.w3.org/2000/svg">
<path d="M7.17316 34.9517C7.15115 34.9466 7.13217 34.947 7.11304 34.954C7.09319 34.9612 7.06889 34.9771 7.03948 35.0103C6.97947 35.078 6.90725 35.2074 6.81395 35.4399C6.62816 35.9029 6.36705 36.7531 5.9502 38.2739C5.86009 38.6613 5.81014 38.944 5.78923 39.1508C5.76819 39.3589 5.77706 39.4857 5.80088 39.5641C5.82346 39.6383 5.8588 39.6675 5.89798 39.6839C5.91963 39.693 5.94409 39.6987 5.97255 39.704C5.98076 39.7055 5.98965 39.7071 5.99891 39.7086C6.01967 39.7122 6.04231 39.7161 6.06352 39.721C6.06562 39.7214 6.07354 39.7221 6.08996 39.7165C6.10587 39.7111 6.12614 39.701 6.15072 39.6851C6.19985 39.6534 6.26068 39.6023 6.33029 39.5326C6.46921 39.3936 6.638 39.1858 6.81149 38.9269C7.15848 38.4091 7.52085 37.6919 7.70011 36.9214C7.87932 36.1512 7.79597 35.6702 7.64606 35.3777C7.49595 35.0847 7.27667 34.9755 7.17316 34.9517Z" fill="#F7F7F7" stroke="#CDCDCD" stroke-width="0.1"/>
<path d="M7.92978 31.8329C8.01251 32.2767 8.03952 32.6079 7.93615 32.9059C7.83388 33.2008 7.60071 33.4719 7.14279 33.7864C7.03614 33.8031 6.9513 33.7698 6.87793 33.6961C6.79964 33.6175 6.73438 33.4923 6.67789 33.3302C6.584 33.0609 6.51988 32.7073 6.45304 32.3388C6.43942 32.2637 6.42569 32.188 6.41157 32.1122C6.3297 31.673 6.28156 30.7248 6.31873 29.8735C6.33731 29.448 6.3771 29.0496 6.44373 28.7527C6.47711 28.604 6.51662 28.4836 6.56196 28.3987C6.60833 28.3117 6.65459 28.2732 6.69604 28.2656C6.73553 28.2583 6.78542 28.2769 6.84778 28.3422C6.90914 28.4064 6.97334 28.5068 7.0387 28.6373C7.16908 28.8975 7.29792 29.2647 7.41656 29.6652C7.6536 30.4655 7.8471 31.3893 7.92978 31.8329Z" fill="#F7F7F7" stroke="#CDCDCD" stroke-width="0.1"/>
<path d="M9.70509 33.2986C9.43354 33.6992 9.20554 33.9747 8.90894 34.1317C8.61591 34.2868 8.24822 34.3301 7.68939 34.248C7.60263 34.186 7.56677 34.1009 7.56948 33.9912C7.57237 33.8741 7.61953 33.7304 7.70016 33.5651C7.83409 33.2906 8.05194 32.9723 8.27866 32.641C8.32482 32.5735 8.37135 32.5055 8.41762 32.4373C8.68664 32.0403 9.35838 31.2754 10.0185 30.6458C10.3484 30.3311 10.6734 30.0521 10.9421 29.8704C11.0767 29.7794 11.1947 29.7144 11.2906 29.681C11.3892 29.6466 11.4503 29.6503 11.4843 29.673C11.5165 29.6946 11.5387 29.7436 11.5344 29.8395C11.5302 29.9331 11.501 30.0566 11.4502 30.2037C11.3491 30.4971 11.1673 30.8716 10.9535 31.2644C10.5264 32.0492 9.97646 32.8981 9.70509 33.2986Z" fill="#F7F7F7" stroke="#CDCDCD" stroke-width="0.1"/>
<path d="M5.91546 33.4424C6.23737 33.5696 6.45803 33.6899 6.59896 33.8947C6.73914 34.0984 6.80609 34.3942 6.79725 34.8855C6.75839 34.977 6.69779 35.0272 6.61989 35.0513C6.53649 35.0771 6.42914 35.074 6.30062 35.0481C6.08652 35.005 5.83229 34.903 5.5653 34.7958C5.51078 34.7739 5.45574 34.7518 5.4004 34.7299C5.08325 34.6047 4.45466 34.2339 3.92651 33.8383C3.66267 33.6407 3.42651 33.4388 3.26779 33.2602C3.1883 33.1707 3.13013 33.0893 3.09711 33.0188C3.06368 32.9475 3.05966 32.8955 3.07425 32.8591C3.08822 32.8241 3.12299 32.7947 3.19043 32.7754C3.25789 32.7562 3.34999 32.7497 3.4628 32.7553C3.68785 32.7665 3.98109 32.8248 4.29204 32.9056C4.91306 33.0669 5.59343 33.3153 5.91546 33.4424Z" fill="#F7F7F7" stroke="#CDCDCD" stroke-width="0.1"/>
<path d="M8.81821 32.326C8.74974 32.7261 8.67887 33.0174 8.54308 33.2459C8.41077 33.4686 8.21411 33.6359 7.88539 33.7824C7.84118 33.7696 7.8076 33.7308 7.78624 33.6515C7.76255 33.5636 7.75833 33.4387 7.76864 33.2851C7.78574 33.0303 7.84139 32.7115 7.89921 32.3802C7.91098 32.3127 7.92283 32.2448 7.93447 32.1768C8.00234 31.7802 8.22074 30.959 8.46171 30.2431C8.58218 29.8852 8.70762 29.5555 8.82193 29.3194C8.87925 29.201 8.93262 29.1085 8.9799 29.048C9.00361 29.0176 9.02407 28.9976 9.04082 28.9861C9.05767 28.9745 9.06577 28.975 9.06776 28.9753C9.06909 28.9755 9.07549 28.9769 9.0853 28.9918C9.09532 29.007 9.1055 29.0315 9.11447 29.0671C9.13232 29.1382 9.14238 29.241 9.14529 29.3696C9.15107 29.626 9.12826 29.9729 9.09117 30.3451C9.01703 31.0889 8.88658 31.9265 8.81821 32.326Z" fill="#F7F7F7" stroke="#CDCDCD" stroke-width="0.1"/>
<path d="M10.137 34.6719C9.80702 34.9092 9.5461 35.0527 9.251 35.0641C8.95734 35.0755 8.61956 34.9564 8.13697 34.6421C8.06884 34.5449 8.05661 34.4514 8.08285 34.3571C8.11064 34.2571 8.18279 34.1523 8.29022 34.0417C8.46913 33.8576 8.7321 33.6707 9.00737 33.475C9.06351 33.4351 9.12017 33.3948 9.17673 33.3542C9.50256 33.1198 10.2688 32.7322 10.9957 32.4589C11.3589 32.3223 11.7092 32.2155 11.9876 32.1703C12.127 32.1476 12.2455 32.1409 12.3374 32.1524C12.4304 32.1639 12.4871 32.1927 12.5158 32.2322C12.5436 32.2703 12.5504 32.3257 12.5264 32.4052C12.5024 32.4847 12.4498 32.5801 12.3726 32.6877C12.2185 32.9025 11.9747 33.1548 11.6976 33.4101C11.1442 33.9202 10.4671 34.4344 10.137 34.6719Z" fill="#F7F7F7" stroke="#CDCDCD" stroke-width="0.1"/>
<path d="M9.13399 35.7298C8.9059 35.5249 8.76757 35.3527 8.73964 35.1133C8.71139 34.8712 8.79466 34.5503 9.04223 34.0463C9.12689 33.9552 9.21091 33.9164 9.29434 33.91C9.38097 33.9035 9.47436 33.9314 9.57605 33.9872C9.7468 34.0809 9.92532 34.2437 10.1147 34.4164C10.1534 34.4518 10.1927 34.4875 10.2324 34.5232C10.4563 34.7244 10.8439 35.2502 11.1294 35.779C11.2719 36.0429 11.3872 36.3042 11.4439 36.5232C11.4723 36.6327 11.4855 36.7294 11.4813 36.8093C11.477 36.8892 11.4557 36.9481 11.4195 36.9879C11.384 37.0269 11.3333 37.0485 11.2647 37.0521C11.1951 37.0559 11.1099 37.0409 11.0117 37.0088C10.8155 36.9447 10.5801 36.8166 10.3387 36.6608C9.8568 36.3497 9.36304 35.9356 9.13399 35.7298Z" fill="#F7F7F7" stroke="#CDCDCD" stroke-width="0.1"/>
<path d="M7.86799 36.0811C7.76436 35.6897 7.72395 35.3963 7.81973 35.1188C7.91507 34.8426 8.14889 34.5726 8.61829 34.239C8.73432 34.2108 8.82661 34.2333 8.90569 34.2917C8.98942 34.3535 9.0617 34.4581 9.12667 34.5976C9.23487 34.8297 9.31534 35.1408 9.39959 35.4665C9.41678 35.5329 9.43412 35.6 9.45189 35.6671C9.55421 36.0535 9.64131 36.9034 9.63536 37.6755C9.63239 38.0613 9.60619 38.4244 9.54811 38.6986C9.51903 38.8359 9.48251 38.9482 9.4386 39.0292C9.39424 39.1111 9.34665 39.1533 9.29899 39.1658C9.25293 39.1778 9.19846 39.164 9.13254 39.1131C9.0666 39.0621 8.99611 38.9791 8.92298 38.8687C8.77704 38.6484 8.6283 38.3314 8.48869 37.9825C8.20982 37.2856 7.97166 36.4726 7.86799 36.0811Z" fill="#F7F7F7" stroke="#CDCDCD" stroke-width="0.1"/>
<path d="M5.455 34.5254C5.83204 34.3705 6.1187 34.2842 6.39806 34.3128C6.67347 34.341 6.95032 34.4821 7.30397 34.8018C7.33446 34.8832 7.32055 34.9571 7.26926 35.031C7.21381 35.1108 7.11512 35.1893 6.98195 35.2678C6.76077 35.3981 6.46038 35.5199 6.14702 35.647C6.08317 35.6729 6.01878 35.699 5.95441 35.7254C5.58155 35.8786 4.75439 36.102 3.99794 36.2355C3.61988 36.3022 3.26222 36.346 2.98955 36.3477C2.85289 36.3486 2.7405 36.3389 2.65849 36.3176C2.57376 36.2956 2.53562 36.2651 2.52366 36.2364C2.51252 36.2096 2.51775 36.1675 2.56483 36.1025C2.61064 36.0393 2.68785 35.9666 2.79162 35.8868C2.99853 35.7278 3.29993 35.5493 3.63263 35.3728C4.29732 35.0202 5.07824 34.6802 5.455 34.5254Z" fill="#F7F7F7" stroke="#CDCDCD" stroke-width="0.1"/>
<path d="M5.53162 35.8705C5.80217 35.5668 6.01947 35.3607 6.27049 35.2522C6.51663 35.1458 6.80185 35.1306 7.2134 35.2237C7.26187 35.2716 7.2758 35.3341 7.2574 35.418C7.2373 35.5097 7.17927 35.6207 7.09175 35.7477C6.94655 35.9584 6.73017 36.1994 6.50488 36.4503C6.459 36.5014 6.41275 36.5529 6.36665 36.6047C6.09884 36.9054 5.46496 37.4769 4.86093 37.9416C4.55901 38.1739 4.26651 38.378 4.03243 38.5078C3.91508 38.5729 3.8149 38.6179 3.73695 38.6392C3.69798 38.6498 3.66694 38.6538 3.64339 38.6527C3.6201 38.6515 3.6074 38.6455 3.60023 38.6392C3.58672 38.6273 3.57428 38.5952 3.59285 38.5175C3.61041 38.4442 3.65173 38.3481 3.71341 38.2341C3.83635 38.0067 4.03378 37.7192 4.25863 37.4188C4.7079 36.8186 5.26137 36.174 5.53162 35.8705Z" fill="#F7F7F7" stroke="#CDCDCD" stroke-width="0.1"/>
<path d="M6.62813 32.4375C6.95564 32.7707 7.16848 33.0408 7.2443 33.3631C7.31951 33.6828 7.26182 34.0634 7.02442 34.6212C6.93464 34.7047 6.83623 34.7288 6.7267 34.7102C6.61068 34.6905 6.48025 34.6224 6.33691 34.5171C6.09855 34.3419 5.83929 34.0754 5.56892 33.7975C5.51383 33.7408 5.45828 33.6837 5.40236 33.6268C5.07825 33.2971 4.49506 32.5054 4.04435 31.7448C3.81911 31.3647 3.62852 30.9949 3.52006 30.6964C3.46575 30.5469 3.43304 30.418 3.42581 30.3161C3.41847 30.2124 3.43808 30.1479 3.47397 30.1131C3.50852 30.0795 3.56696 30.0655 3.66016 30.0834C3.75256 30.1011 3.86798 30.1483 4.00145 30.2208C4.26778 30.3655 4.59354 30.6038 4.92909 30.8774C5.59952 31.4239 6.30069 32.1044 6.62813 32.4375Z" fill="#F7F7F7" stroke="#CDCDCD" stroke-width="0.1"/>
<path d="M9.28492 34.1508C9.28492 35.1289 8.48673 35.9224 7.50144 35.9224C6.51615 35.9224 5.71797 35.1289 5.71797 34.1508C5.71797 33.1727 6.51615 32.3792 7.50144 32.3792C8.48673 32.3792 9.28492 33.1727 9.28492 34.1508Z" fill="#EFCB3E" stroke="#CDCDCD" stroke-width="0.1"/>
<ellipse cx="6.75696" cy="33.1582" rx="0.147586" ry="0.146633" fill="#EECA3E"/>
<ellipse cx="6.54212" cy="34.162" rx="0.147586" ry="0.146633" fill="#EECA3E"/>
<ellipse cx="7.38587" cy="34.4553" rx="0.147586" ry="0.146633" fill="#EECA3E"/>
<ellipse cx="8.23352" cy="34.7486" rx="0.147586" ry="0.146633" fill="#EECA3E"/>
<ellipse cx="8.52259" cy="34.3087" rx="0.147586" ry="0.146633" fill="#EECA3E"/>
<ellipse cx="8.02259" cy="33.7052" rx="0.147586" ry="0.146633" fill="#EECA3E"/>
<ellipse cx="7.52259" cy="33.1018" rx="0.147586" ry="0.146633" fill="#EECA3E"/>
<ellipse cx="8.31165" cy="32.8649" rx="0.147586" ry="0.146633" fill="#EECA3E"/>
<ellipse cx="7.87415" cy="35.0982" rx="0.147586" ry="0.146633" fill="#EECA3E"/>
<ellipse cx="6.9054" cy="35.0982" rx="0.147586" ry="0.146633" fill="#EECA3E"/>
<ellipse cx="6.10071" cy="34.3087" rx="0.147586" ry="0.146633" fill="#EECA3E"/>
<path d="M16.4267 24.9168C15.4142 23.3904 11.6657 19.2216 9.54059 19.5004C9.54059 19.5004 6.47401 18.9738 -0.000671814 20.7519C4.18077 17.464 13.2696 16.5338 14.9979 17.4707C16.7263 18.4076 27.2308 27.2185 16.4267 24.9168Z" fill="#748542"/>
<path d="M25.6162 24.9168C26.5026 23.3903 29.7845 19.2216 31.645 19.5004C31.645 19.5004 34.3298 18.9738 39.9985 20.7519C36.3376 17.464 28.3803 16.5338 26.8671 17.4707C25.3539 18.4076 16.157 27.2185 25.6162 24.9168Z" fill="#748542"/>
<path d="M17.7222 27.7116C16.8033 26.4812 13.4576 23.067 11.6614 23.1651C11.6614 23.1651 9.03399 22.5915 3.59652 23.6051C7.02676 21.3037 14.7191 21.0862 16.2243 21.9021C17.7294 22.718 26.9959 30.0758 17.7222 27.7116Z" fill="#748542"/>
<path d="M24.4814 27.7116C25.2859 26.4812 28.2151 23.067 29.7877 23.1651C29.7877 23.1651 32.088 22.5915 36.8485 23.6051C33.8453 21.3037 27.1106 21.0862 25.7928 21.9021C24.4751 22.718 16.3621 30.0758 24.4814 27.7116Z" fill="#748542"/>
<path d="M17.5425 17.504C16.6236 16.2736 13.2779 12.8594 11.4817 12.9574C11.4817 12.9574 8.8543 12.3839 3.41683 13.3975C6.84707 11.0961 14.5394 10.8785 16.0446 11.6944C17.5497 12.5104 26.8162 19.8682 17.5425 17.504Z" fill="#748542"/>
<path d="M24.6416 17.504C25.446 16.2736 28.3752 12.8594 29.9479 12.9574C29.9479 12.9574 32.2481 12.3839 37.0087 13.3975C34.0055 11.0961 27.2708 10.8785 25.953 11.6944C24.6352 12.5104 16.5223 19.8682 24.6416 17.504Z" fill="#748542"/>
<g filter="url(#filter0_d_272_275)">
<ellipse cx="8.45479" cy="7.64834" rx="8.45479" ry="7.64834" transform="matrix(-0.119311 0.992857 -0.989236 -0.146331 28.7383 13.8794)" fill="#D9D9D9"/>
<path d="M19.2606 28.6528C15.5997 28.1112 12.9472 24.351 13.4506 20.1618C13.954 15.9727 17.4018 13.1148 21.0627 13.6563C24.7237 14.1978 27.3762 17.9581 26.8728 22.1473C26.3694 26.3364 22.9216 29.1943 19.2606 28.6528Z" fill="#FBFBFB"/>
<path d="M19.2606 28.6528C15.5997 28.1112 12.9472 24.351 13.4506 20.1618C13.954 15.9727 17.4018 13.1148 21.0627 13.6563C24.7237 14.1978 27.3762 17.9581 26.8728 22.1473C26.3694 26.3364 22.9216 29.1943 19.2606 28.6528Z" stroke="#8F8F8F"/>
<path d="M19.2606 28.6528C15.5997 28.1112 12.9472 24.351 13.4506 20.1618C13.954 15.9727 17.4018 13.1148 21.0627 13.6563C24.7237 14.1978 27.3762 17.9581 26.8728 22.1473C26.3694 26.3364 22.9216 29.1943 19.2606 28.6528Z" stroke="#686565" stroke-opacity="0.2"/>
<ellipse cx="4.87157" cy="3.93343" rx="4.87157" ry="3.93343" transform="matrix(-0.119311 0.992857 -0.989236 -0.146331 24.793 16.7947)" fill="#F9F9F9"/>
<rect width="0.873686" height="3.18349" transform="matrix(0.367316 0.930096 -0.89936 0.43721 21.4766 19.5587)" fill="#ECDCD7"/>
</g>
<path d="M24.39 2.483C24.39 4.05189 23.2728 5.32373 21.8947 5.32373C20.5166 5.32373 21.4488 4.66212 21.4488 3.09323C21.4488 1.52435 24.1268 0 25.5049 0C26.883 0 24.39 0.914115 24.39 2.483Z" fill="#EFE0FF"/>
<path d="M25.4229 7.07207C23.9039 7.51474 22.3573 6.81159 21.9684 5.50156C21.5796 4.19152 22.4832 4.89095 24.0022 4.44829C25.5212 4.00563 27.7527 6.1213 28.1415 7.43134C28.5304 8.74137 26.9419 6.62941 25.4229 7.07207Z" fill="#EFE0FF"/>
<path d="M20.9084 7.55421C20.6566 9.10314 18.0508 8.50265 17.2027 9.06927C14.5481 9.79523 18.0697 8.27064 18.3215 6.72171C18.5732 5.17279 21.4618 4.08982 22.8224 4.30697C24.183 4.52412 21.1602 6.00529 20.9084 7.55421Z" fill="#EFE0FF"/>
<path d="M23.205 7.09603C24.2938 8.23516 24.3652 9.91978 23.3646 10.8587C22.364 11.7977 23.004 10.503 21.9153 9.36389C20.8265 8.22476 21.2909 5.4725 22.2915 4.53355C23.2921 3.59461 22.1163 5.9569 23.205 7.09603Z" fill="#EFE0FF"/>
<path d="M18.507 4.89238C16.9746 4.49772 18.507 3.78765 16.4684 2.06218C15.3641 0.452431 18.2382 2.19357 19.7706 2.58824C21.303 2.9829 22.0983 5.25514 21.7516 6.57674C21.405 7.89834 20.0395 5.28705 18.507 4.89238Z" fill="#EFE0FF"/>
<path d="M22.4375 3.80449C22.4405 3.33438 22.4684 2.91989 22.6275 2.47207C22.7138 2.22926 22.836 1.89246 23.0681 1.74023C23.2207 1.64015 23.4272 1.52892 23.6037 1.47346C23.7675 1.422 23.9439 1.2777 24.0557 1.14678C24.139 1.04933 24.2278 0.94918 24.3149 0.862888C24.3642 0.814007 24.4162 0.74575 24.4848 0.723083" stroke="#C38BFF" stroke-width="0.1" stroke-linecap="round"/>
<path d="M22.8789 3.85585C23.1801 3.28175 23.4705 2.70226 23.7744 2.12969C23.9216 1.85238 24.0773 1.58991 24.2927 1.35648C24.4452 1.19132 24.6364 1.06154 24.7966 0.902832" stroke="#C38BFF" stroke-width="0.1" stroke-linecap="round"/>
<path d="M20.2869 4.06128C19.7394 3.58418 19.2014 3.07384 18.6082 2.6504C18.4888 2.56515 18.4076 2.52127 18.2713 2.50061C18.1717 2.48551 18.0781 2.46993 17.9805 2.44354" stroke="#C38BFF" stroke-width="0.1" stroke-linecap="round"/>
<path d="M19.6388 4.65188C19.2385 4.09114 18.8577 3.49506 18.2912 3.08264C18.0232 2.88758 17.7001 2.77929 17.4317 2.58191C17.2882 2.47644 17.125 2.3491 17.125 2.16107" stroke="#C38BFF" stroke-width="0.1" stroke-linecap="round"/>
<path d="M23.8945 5.34381C24.452 5.37251 25.0354 5.49651 25.5642 5.6667C26.0508 5.82331 26.3319 6.04939 26.6702 6.39535C26.8177 6.54624 26.9516 6.72798 27.1128 6.86111" stroke="#C38BFF" stroke-width="0.1" stroke-linecap="round"/>
<path d="M24.3359 6.11531C24.595 6.11531 24.8541 6.11531 25.1131 6.11531C25.23 6.11531 25.3726 6.09784 25.488 6.13103C25.6365 6.17376 25.8054 6.3095 25.9206 6.40534C25.9937 6.4662 26.0532 6.50107 26.1527 6.50107" stroke="#C38BFF" stroke-width="0.1" stroke-linecap="round"/>
<path d="M22.3633 6.88684C22.4943 7.24686 22.6823 7.58025 22.8593 7.91981C23.0265 8.24065 23.3559 8.68875 23.3971 9.06993C23.4248 9.32557 23.396 9.58978 23.3755 9.8443" stroke="#C38BFF" stroke-width="0.1" stroke-linecap="round"/>
<path d="M21.9727 7.19543C22.4418 7.95917 23.0887 8.72692 23.0887 9.66427C23.0887 9.77571 23.0887 9.88715 23.0887 9.99859" stroke="#C38BFF" stroke-width="0.1" stroke-linecap="round"/>
<path d="M20.2362 6.80969C20.1397 7.2912 20.0412 7.60593 19.6119 7.89838C19.2704 8.13101 18.8411 8.26508 18.4295 8.29556C18.3181 8.30382 18.1545 8.25703 18.082 8.35271" stroke="#C38BFF" stroke-width="0.1" stroke-linecap="round"/>
<path d="M19.6654 5.88385C19.71 6.32559 19.6324 6.86827 19.4145 7.25828C19.306 7.45255 19.1106 7.55194 18.9257 7.65832C18.7979 7.73185 18.6629 7.79226 18.5234 7.83834" stroke="#C38BFF" stroke-width="0.1" stroke-linecap="round"/>
<path d="M20.6995 5.28163C20.6995 5.85108 20.6995 5.78665 21.4094 6.31271C20.864 6.31271 20.4219 5.85108 20.4219 5.28163C20.4219 4.71218 20.864 4.25055 21.4094 4.25055C21.9547 4.25055 20.7844 4.40837 20.6995 5.28163Z" fill="#E6CEFF"/>
<path d="M22.8538 5.61538C23.0051 5.06602 22.988 5.12817 22.4429 4.43549C22.969 4.57775 23.2729 5.13843 23.1216 5.68779C22.9703 6.23715 22.4211 6.56717 21.895 6.4249C21.3689 6.28264 22.5398 6.43568 22.8538 5.61538Z" fill="#E6CEFF"/>
<path d="M21.7759 4.61883L21.8608 4.39789L21.7759 4.88186L21.8608 5.33428H21.6484L21.8608 4.88186L21.7759 4.61883Z" fill="#A95AFF"/>
<path d="M22.0962 5.08172L22.1811 4.86078L22.0962 5.34475L22.1811 5.79717H21.9688L22.1811 5.34475L22.0962 5.08172Z" fill="#A95AFF"/>
<path d="M21.3501 5.03967L21.435 4.81873L21.3501 5.3027L21.435 5.75511H21.2227L21.435 5.3027L21.3501 5.03967Z" fill="#A95AFF"/>
<path d="M21.4555 4.61883L21.5405 4.39789L21.4555 4.88186L21.5405 5.33428H21.3281L21.5405 4.88186L21.4555 4.61883Z" fill="#A95AFF"/>
<path d="M21.7134 5.16595L21.7983 4.94501L21.7134 5.42898L21.7983 5.88139H21.5859L21.7983 5.42898L21.7134 5.16595Z" fill="#A95AFF"/>
<path d="M22.2016 4.68194L22.2866 4.461L22.2016 4.94497L22.2866 5.39739H22.0742L22.2866 4.94497L22.2016 4.68194Z" fill="#A95AFF"/>
<path d="M21.1587 4.80823L21.2436 4.58728L21.1587 5.07126L21.2436 5.52367H21.0312L21.2436 5.07126L21.1587 4.80823Z" fill="#A95AFF"/>
<path d="M36.727 37.3017C36.3971 39.1373 35.5483 38.9491 33.5371 38.5031C33.1155 38.4096 32.6428 38.3048 32.1131 38.2049C29.0566 37.6286 27.4082 35.5489 27.8073 33.3285C28.1807 31.2505 29.6081 32.2933 32.2103 34.1945C32.3885 34.3248 32.5723 34.459 32.7616 34.5966C36.1465 33.5883 37.126 35.0813 36.727 37.3017Z" fill="#774E47"/>
<path d="M36.727 37.3017C36.3971 39.1373 35.5483 38.9491 33.5371 38.5031C33.1155 38.4096 32.6428 38.3048 32.1131 38.2049C29.0566 37.6286 27.4082 35.5489 27.8073 33.3285C28.1807 31.2505 29.6081 32.2933 32.2103 34.1945C32.3885 34.3248 32.5723 34.459 32.7616 34.5966C36.1465 33.5883 37.126 35.0813 36.727 37.3017Z" stroke="#B38168"/>
<path d="M36.7269 37.3017C36.5393 38.3454 36.3092 38.0384 35.8005 37.3602C35.2269 36.5954 34.2993 35.3586 32.6795 35.0532C31.6699 34.8628 30.7521 34.8523 29.9901 34.8436C28.445 34.8259 27.54 34.8155 27.8072 33.3285C28.2062 31.1081 30.2254 31.1247 33.2819 31.701C36.3384 32.2773 37.1259 35.0813 36.7269 37.3017Z" fill="#8C5F57"/>
<path d="M36.7269 37.3017C36.5393 38.3454 36.3092 38.0384 35.8005 37.3602C35.2269 36.5954 34.2993 35.3586 32.6795 35.0532C31.6699 34.8628 30.7521 34.8523 29.9901 34.8436C28.445 34.8259 27.54 34.8155 27.8072 33.3285C28.2062 31.1081 30.2254 31.1247 33.2819 31.701C36.3384 32.2773 37.1259 35.0813 36.7269 37.3017Z" stroke="#B38168"/>
<defs>
<filter id="filter0_d_272_275" x="8.53125" y="12.6849" width="23.2656" height="24.9393" filterUnits="userSpaceOnUse" color-interpolation-filters="sRGB">
<feFlood flood-opacity="0" result="BackgroundImageFix"/>
<feColorMatrix in="SourceAlpha" type="matrix" values="0 0 0 0 0 0 0 0 0 0 0 0 0 0 0 0 0 0 127 0" result="hardAlpha"/>
<feOffset dy="4"/>
<feGaussianBlur stdDeviation="2"/>
<feComposite in2="hardAlpha" operator="out"/>
<feColorMatrix type="matrix" values="0 0 0 0 0 0 0 0 0 0 0 0 0 0 0 0 0 0 0.88 0"/>
<feBlend mode="normal" in2="BackgroundImageFix" result="effect1_dropShadow_272_275"/>
<feBlend mode="normal" in="SourceGraphic" in2="effect1_dropShadow_272_275" result="shape"/>
</filter>
</defs>
</svg>
