<svg width="414" height="651" viewBox="0 0 414 651" fill="none" xmlns="http://www.w3.org/2000/svg">
<ellipse cx="207" cy="579.427" rx="207" ry="71.5725" fill="#C0C0C0" fill-opacity="0.17"/>
<path d="M359.081 233.657C359.081 249.225 366.826 245.586 216.64 263.463C165.365 263.463 78.8711 264.345 57.9081 253.777C41.4357 222.95 45.5659 239.685 96.8411 239.685C148.116 239.685 359.081 218.09 359.081 233.657Z" fill="url(#paint0_linear_277_2)"/>
<path d="M240.607 286.59C240.607 296.472 174.269 299.264 134.995 299.264C95.7206 299.264 82.1885 296.282 70.9232 291.809C61.7698 291.809 31.6843 261.243 63.368 246.332C94.5373 238.132 240.607 276.708 240.607 286.59Z" fill="url(#paint1_linear_277_2)"/>
<path d="M354.154 245.586C355.483 255.367 276.574 309.568 237.7 315.49C198.826 321.412 69.4881 276.629 57.7361 273.9C38.7245 243.35 115.47 263.478 147.155 259.006C147.155 259.006 352.825 235.804 354.154 245.586Z" fill="url(#paint2_linear_277_2)"/>
<path d="M171.092 301.502C172.692 311.238 289.89 302.483 314.381 297.97C338.873 293.456 362.638 281.11 368.939 275.408C374.647 274.356 372.859 238.761 348.368 243.275C321.309 282.315 169.492 291.766 171.092 301.502Z" fill="url(#paint3_linear_277_2)"/>
<path d="M368.861 412.313C357.455 585.775 302.63 564.146 215.449 564.146C34.5314 564.146 42.9485 499.818 49.285 237.385C123.918 323.123 211.225 294.047 211.225 311.939C345.703 311.939 389.812 93.675 368.861 412.313Z" fill="url(#paint4_linear_277_2)"/>
<path d="M43.0139 405.622C48.0838 598.812 118.989 576.344 149.517 576.344C353.449 587.792 365.597 354.695 369.643 274.662C367.755 280.645 220.995 311.563 156.53 327.27C95.8424 391.597 34.652 86.984 43.0139 405.622Z" fill="url(#paint5_linear_277_2)"/>
<path d="M378.018 405.745C373.482 576.609 337.256 572.134 270.209 576.609C-76.039 599.721 213.965 504.745 209.869 424.646C211.78 430.633 197.855 311.608 263.11 327.328C324.542 391.709 386.482 86.8426 378.018 405.745Z" fill="url(#paint6_linear_277_2)"/>
<path d="M364.714 516.801C352.04 550.936 310.117 583.853 175.849 580.552C100.128 580.552 89.2086 572.498 77.4492 544.227C77.4492 524.165 132.614 556.594 186.959 556.594C241.304 556.594 377.387 482.666 364.714 516.801Z" fill="url(#paint7_linear_277_2)"/>
<path d="M289.577 351.25C276.829 526.865 299.873 534.581 226.818 526.863C143.486 518.06 150.13 541.142 125.326 506.647C125.326 470.584 125.326 421.655 125.326 351.249C125.326 329.952 292.015 317.659 289.577 351.25Z" fill="white"/>
<path d="M359.081 237.221C359.081 256.574 289.1 254.369 202.775 254.369C86.6014 270.025 47.877 256.574 47.877 237.221C47.877 217.869 116.449 202.18 202.775 202.18C289.1 202.18 359.081 217.869 359.081 237.221Z" fill="#582E1F"/>
<ellipse cx="207.448" cy="198.317" rx="138.96" ry="42.2985" fill="#BF774A"/>
<path d="M337.346 200.805C331.304 210.757 272.101 216.563 179.506 216.563C150.052 216.563 88.8796 210.758 80.5723 200.805C97.187 170.947 189.323 166.801 199.896 166.801C216.511 162.654 337.346 171.947 337.346 200.805Z" fill="#F4ECD4"/>
<path d="M341.877 199.146C341.877 212.429 278.85 229.005 206.693 229.005C134.535 229.005 73.0195 212.43 73.0195 199.146C82.8373 204.952 142.088 207.44 214.245 207.44C286.402 207.44 329.038 210.287 341.877 199.146Z" fill="#CF5B13"/>
<path d="M334.326 214.205C347.164 203.063 352.107 222.499 279.949 222.499C207.792 222.499 89.6348 244.077 89.6348 230.793C99.4526 236.599 126.985 263.139 199.142 263.139C271.299 263.139 321.487 225.346 334.326 214.205Z" fill="#CF5B13"/>
<path d="M302.605 215.734C302.605 223.852 245.388 243.933 190.256 243.933C135.125 243.933 88.8789 238.873 88.8789 230.755C96.3802 234.304 140.895 230.755 196.026 230.755C228.594 230.755 292.796 222.543 302.605 215.734Z" fill="#A9491B"/>
<path d="M340.774 209.636C338.788 217.425 187.075 244.985 151.448 249.269C97.5571 255.75 68.7451 215.314 70.732 207.525C76.9514 213.11 98.129 222.262 119.624 227.946C150.694 236.162 329.839 213.317 340.774 209.636Z" fill="#B85425"/>
<path d="M326.695 258.397C404.848 230.409 203.481 251.387 203.481 251.387C117.155 251.387 71.1133 237.968 71.1133 258.397C71.1133 240.296 88.2878 280.463 174.613 280.463C174.613 276.735 240.093 289.41 326.695 258.397Z" fill="#3E150E"/>
<path d="M207 166.394H211.224V191.743H202.775L207 180.56V166.394Z" fill="url(#paint8_linear_277_2)"/>
<path d="M196.633 193.268C367.941 73.7455 356.399 152.84 334.924 201.774C304.858 217.859 284.102 222.44 226.983 225.213C169.864 227.986 57.9539 234.136 70.6016 180.8C111.189 189.285 139.514 196.041 196.633 193.268Z" fill="#2F2E2A"/>
<path d="M95.6145 139.507C100.163 141.777 93.6679 174.335 90.517 180.65C87.366 186.966 76.0862 194.454 71.5376 192.184C66.989 189.915 71.7271 168.242 74.8781 161.926C78.0291 155.611 91.0659 137.238 95.6145 139.507Z" fill="#2F2E2A"/>
<path d="M204.785 112.719C233.322 111.334 269.382 112.328 298.024 118.314C312.349 121.308 324.781 125.542 333.489 131.326C342.194 137.107 347.113 144.387 346.59 153.473C346.066 162.598 341.377 169.759 333.697 175.443C325.994 181.144 315.295 185.344 302.825 188.483C277.887 194.758 246.069 196.738 217.501 198.125C188.937 199.511 153.515 200.689 125.507 196.874C111.499 194.965 99.3931 191.814 90.9327 186.845C82.4847 181.885 77.7284 175.153 78.2507 166.07C78.7763 156.929 83.3223 149.212 90.7816 142.711C98.2539 136.199 108.639 130.918 120.785 126.697C145.072 118.256 176.246 114.104 204.785 112.719Z" fill="#25241F" stroke="#A0A0A0"/>
<path d="M200.915 441.729C200.65 441.662 200.413 441.665 200.169 441.763C199.914 441.866 199.61 442.09 199.25 442.542C198.52 443.457 197.657 445.181 196.553 448.237C194.352 454.329 191.262 465.504 186.334 485.472C185.267 490.564 184.675 494.286 184.426 497.015C184.177 499.755 184.279 501.451 184.57 502.513C184.85 503.536 185.293 503.938 185.768 504.159C186.029 504.281 186.322 504.357 186.66 504.427C186.758 504.447 186.864 504.467 186.974 504.488C187.218 504.535 187.484 504.585 187.733 504.649C187.769 504.658 187.875 504.665 188.079 504.587C188.277 504.512 188.524 504.374 188.82 504.162C189.412 503.738 190.139 503.059 190.966 502.14C192.617 500.305 194.619 497.568 196.674 494.161C200.785 487.349 205.08 477.91 207.205 467.765C209.331 457.62 208.347 451.257 206.554 447.373C204.762 443.488 202.148 442.044 200.915 441.729Z" fill="#F7F7F7" stroke="#CDCDCD"/>
<path d="M209.897 400.912C210.875 406.743 211.203 411.135 209.966 415.098C208.742 419.017 205.958 422.596 200.536 426.73C199.259 426.955 198.224 426.517 197.323 425.512C196.373 424.452 195.591 422.777 194.92 420.638C193.805 417.085 193.044 412.423 192.253 407.585C192.093 406.6 191.931 405.608 191.764 404.617C190.793 398.829 190.224 386.362 190.664 375.177C190.884 369.586 191.355 364.342 192.146 360.429C192.542 358.469 193.013 356.872 193.557 355.738C194.116 354.574 194.682 354.045 195.193 353.94C195.684 353.84 196.303 354.101 197.061 354.983C197.802 355.845 198.57 357.181 199.346 358.902C200.894 362.334 202.421 367.168 203.825 372.431C206.63 382.948 208.918 395.084 209.897 400.912Z" fill="#F7F7F7" stroke="#CDCDCD"/>
<path d="M230.912 420.241C227.7 425.504 224.988 429.15 221.448 431.231C217.945 433.29 213.563 433.854 206.935 432.769C205.87 431.934 205.426 430.775 205.459 429.284C205.494 427.714 206.062 425.805 207.018 423.627C208.606 420.011 211.19 415.819 213.87 411.47C214.415 410.585 214.965 409.693 215.51 408.799C218.699 403.574 226.649 393.521 234.456 385.251C238.359 381.117 242.209 377.447 245.394 375.055C246.99 373.856 248.396 372.995 249.546 372.55C250.725 372.093 251.488 372.128 251.927 372.455C252.349 372.769 252.615 373.465 252.563 374.745C252.513 375.995 252.162 377.632 251.561 379.568C250.361 383.434 248.207 388.361 245.679 393.52C240.626 403.83 234.121 414.981 230.912 420.241Z" fill="#F7F7F7" stroke="#CDCDCD"/>
<path d="M186.046 421.924C189.851 423.593 192.478 425.18 194.159 427.894C195.839 430.605 196.632 434.535 196.524 441.021C196.045 442.295 195.288 442.996 194.325 443.327C193.316 443.673 192.031 443.629 190.51 443.289C187.972 442.721 184.96 441.378 181.804 439.97C181.159 439.683 180.509 439.393 179.856 439.107C176.1 437.459 168.663 432.588 162.416 427.391C159.296 424.795 156.499 422.14 154.617 419.789C153.675 418.612 152.981 417.533 152.584 416.593C152.185 415.647 152.116 414.912 152.313 414.364C152.506 413.829 152.971 413.422 153.78 413.166C154.592 412.908 155.692 412.824 157.028 412.898C159.696 413.046 163.168 413.812 166.846 414.873C174.191 416.993 182.237 420.254 186.046 421.924Z" fill="#F7F7F7" stroke="#CDCDCD"/>
<path d="M220.416 407.423C219.607 412.676 218.765 416.533 217.141 419.568C215.552 422.538 213.195 424.753 209.285 426.685C208.731 426.514 208.302 425.974 208.036 424.875C207.748 423.689 207.7 422.024 207.822 420.001C208.025 416.644 208.685 412.444 209.369 408.094C209.508 407.21 209.648 406.319 209.785 405.428C210.59 400.207 213.175 389.414 216.025 380.009C217.451 375.307 218.936 370.97 220.293 367.859C220.972 366.299 221.609 365.071 222.179 364.262C222.465 363.855 222.717 363.579 222.93 363.417C223.147 363.251 223.261 363.251 223.299 363.258C223.329 363.264 223.422 363.295 223.552 363.515C223.682 363.734 223.808 364.075 223.916 364.553C224.132 365.506 224.251 366.874 224.286 368.567C224.354 371.946 224.084 376.51 223.645 381.399C222.768 391.172 221.225 402.174 220.416 407.423Z" fill="#F7F7F7" stroke="#CDCDCD"/>
<path d="M236.004 438.318C232.101 441.435 228.996 443.337 225.474 443.489C221.962 443.64 217.936 442.054 212.209 437.908C211.366 436.586 211.211 435.305 211.533 434.021C211.869 432.68 212.736 431.288 214.01 429.832C216.131 427.407 219.249 424.946 222.504 422.377C223.167 421.853 223.836 421.325 224.503 420.792C228.365 417.707 237.433 412.614 246.03 409.024C250.326 407.23 254.475 405.824 257.776 405.229C259.429 404.931 260.842 404.841 261.944 404.993C263.054 405.147 263.77 405.533 264.143 406.102C264.508 406.658 264.577 407.439 264.289 408.499C264 409.562 263.372 410.825 262.456 412.242C260.629 415.072 257.74 418.39 254.463 421.744C247.916 428.445 239.907 435.199 236.004 438.318Z" fill="#F7F7F7" stroke="#CDCDCD"/>
<path d="M223.981 452.195C221.281 449.5 219.618 447.213 219.283 444.022C218.944 440.801 219.945 436.552 222.88 429.92C223.902 428.693 224.928 428.159 225.954 428.073C227.01 427.984 228.137 428.363 229.349 429.102C231.38 430.34 233.503 432.49 235.741 434.757C236.199 435.221 236.661 435.689 237.129 436.155C239.79 438.811 244.379 445.729 247.758 452.676C249.444 456.145 250.812 459.586 251.486 462.476C251.824 463.921 251.982 465.204 251.931 466.271C251.88 467.338 251.623 468.147 251.169 468.701C250.721 469.247 250.088 469.539 249.254 469.589C248.411 469.639 247.388 469.437 246.221 469.013C243.887 468.167 241.094 466.478 238.238 464.431C232.534 460.341 226.691 454.9 223.981 452.195Z" fill="#F7F7F7" stroke="#CDCDCD"/>
<path d="M208.985 456.735C207.758 451.589 207.268 447.689 208.417 443.993C209.558 440.323 212.348 436.76 217.903 432.376C219.289 432 220.408 432.293 221.377 433.087C222.396 433.922 223.265 435.327 224.039 437.171C225.325 440.237 226.282 444.344 227.278 448.62C227.481 449.491 227.685 450.368 227.894 451.246C229.11 456.344 230.14 467.522 230.069 477.667C230.034 482.738 229.724 487.52 229.034 491.137C228.689 492.948 228.253 494.438 227.726 495.519C227.191 496.614 226.613 497.189 226.03 497.358C225.465 497.522 224.795 497.331 223.992 496.642C223.195 495.958 222.35 494.85 221.481 493.393C219.745 490.484 217.982 486.307 216.33 481.723C213.029 472.563 210.211 461.879 208.985 456.735Z" fill="#F7F7F7" stroke="#CDCDCD"/>
<path d="M180.509 436.145C184.966 434.111 188.369 432.971 191.693 433.349C194.986 433.723 198.291 435.602 202.5 439.834C202.902 440.986 202.722 442.023 202.093 443.029C201.427 444.095 200.248 445.132 198.673 446.163C196.053 447.878 192.497 449.479 188.792 451.147C188.037 451.487 187.277 451.83 186.516 452.176C182.103 454.19 172.318 457.125 163.373 458.878C158.902 459.755 154.669 460.33 151.439 460.353C149.821 460.364 148.483 460.236 147.501 459.954C146.5 459.665 145.985 459.25 145.812 458.789C145.646 458.347 145.752 457.732 146.308 456.88C146.857 456.039 147.778 455.078 149.006 454.029C151.457 451.937 155.024 449.592 158.958 447.274C166.819 442.643 176.054 438.177 180.509 436.145Z" fill="#F7F7F7" stroke="#CDCDCD"/>
<path d="M181.404 453.859C184.603 449.87 187.188 447.143 190.183 445.705C193.132 444.29 196.54 444.096 201.436 445.331C202.06 445.998 202.235 446.874 202.009 448.024C201.766 449.254 201.068 450.73 200.031 452.401C198.309 455.176 195.744 458.348 193.081 461.643C192.539 462.313 191.993 462.989 191.449 463.667C188.275 467.624 180.774 475.133 173.63 481.238C170.058 484.289 166.594 486.974 163.819 488.684C162.428 489.54 161.234 490.138 160.298 490.421C159.83 490.563 159.45 490.619 159.154 490.602C158.861 490.586 158.684 490.501 158.576 490.395C158.366 490.19 158.233 489.701 158.454 488.673C158.666 487.693 159.16 486.42 159.891 484.919C161.349 481.924 163.688 478.143 166.347 474.197C171.662 466.312 178.208 457.845 181.404 453.859Z" fill="#F7F7F7" stroke="#CDCDCD"/>
<path d="M194.485 408.778C198.359 413.155 200.897 416.723 201.801 420.993C202.7 425.235 202.004 430.27 199.186 437.617C198.092 438.757 196.885 439.089 195.548 438.837C194.149 438.573 192.589 437.665 190.889 436.277C188.062 433.97 184.988 430.461 181.791 426.812C181.141 426.069 180.485 425.321 179.825 424.575C175.984 420.235 169.083 409.83 163.752 399.839C161.088 394.845 158.83 389.982 157.544 386.052C156.901 384.084 156.51 382.379 156.423 381.023C156.336 379.649 156.566 378.753 157.028 378.256C157.476 377.772 158.215 377.594 159.333 377.831C160.443 378.067 161.82 378.695 163.403 379.65C166.561 381.556 170.42 384.691 174.388 388.284C182.319 395.464 190.613 404.403 194.485 408.778Z" fill="#F7F7F7" stroke="#CDCDCD"/>
<path d="M225.918 431.363C225.918 444.344 216.391 454.781 204.741 454.781C193.091 454.781 183.564 444.344 183.564 431.363C183.564 418.383 193.091 407.946 204.741 407.946C216.391 407.946 225.918 418.383 225.918 431.363Z" fill="#EFCB3E" stroke="#CDCDCD"/>
<ellipse cx="195.952" cy="418.331" rx="1.74486" ry="1.92524" fill="#EECA3E"/>
<ellipse cx="193.401" cy="431.512" rx="1.74486" ry="1.92524" fill="#EECA3E"/>
<ellipse cx="203.399" cy="435.362" rx="1.74486" ry="1.92524" fill="#EECA3E"/>
<ellipse cx="213.399" cy="439.213" rx="1.74486" ry="1.92524" fill="#EECA3E"/>
<ellipse cx="216.823" cy="433.437" rx="1.74486" ry="1.92524" fill="#EECA3E"/>
<ellipse cx="210.917" cy="425.514" rx="1.74486" ry="1.92524" fill="#EECA3E"/>
<ellipse cx="205.01" cy="417.591" rx="1.74486" ry="1.92524" fill="#EECA3E"/>
<ellipse cx="214.339" cy="414.481" rx="1.74486" ry="1.92524" fill="#EECA3E"/>
<ellipse cx="209.171" cy="443.804" rx="1.74486" ry="1.92524" fill="#EECA3E"/>
<ellipse cx="197.696" cy="443.804" rx="1.74486" ry="1.92524" fill="#EECA3E"/>
<ellipse cx="188.167" cy="433.437" rx="1.74486" ry="1.92524" fill="#EECA3E"/>
<defs>
<linearGradient id="paint0_linear_277_2" x1="158.418" y1="235.148" x2="158.418" y2="263.479" gradientUnits="userSpaceOnUse">
<stop stop-color="#893E19"/>
<stop offset="0.0001" stop-color="#BA4E11"/>
<stop offset="0.614583" stop-color="#5F190C"/>
</linearGradient>
<linearGradient id="paint1_linear_277_2" x1="144.908" y1="245.197" x2="144.908" y2="299.264" gradientUnits="userSpaceOnUse">
<stop stop-color="#5F190C"/>
<stop offset="1" stop-color="#5F190C" stop-opacity="0"/>
</linearGradient>
<linearGradient id="paint2_linear_277_2" x1="252.388" y1="255.069" x2="260.521" y2="308.454" gradientUnits="userSpaceOnUse">
<stop offset="0.526042" stop-color="#5F190C"/>
<stop offset="1" stop-color="#421D10"/>
</linearGradient>
<linearGradient id="paint3_linear_277_2" x1="267.259" y1="258.221" x2="280.072" y2="295.856" gradientUnits="userSpaceOnUse">
<stop stop-color="#50090D"/>
<stop offset="1" stop-color="#411C0F" stop-opacity="0.63"/>
</linearGradient>
<linearGradient id="paint4_linear_277_2" x1="217.402" y1="272.426" x2="217.402" y2="578.954" gradientUnits="userSpaceOnUse">
<stop stop-color="#3C130D"/>
<stop offset="1" stop-color="#542E17" stop-opacity="0.66"/>
</linearGradient>
<linearGradient id="paint5_linear_277_2" x1="149.859" y1="257.515" x2="149.859" y2="577.405" gradientUnits="userSpaceOnUse">
<stop stop-color="#3D190D"/>
<stop offset="1" stop-color="#512B1A"/>
</linearGradient>
<linearGradient id="paint6_linear_277_2" x1="239.417" y1="257.515" x2="239.417" y2="580.138" gradientUnits="userSpaceOnUse">
<stop stop-color="#492014"/>
<stop offset="1" stop-color="#522E18" stop-opacity="0.87"/>
</linearGradient>
<linearGradient id="paint7_linear_277_2" x1="221.082" y1="537.677" x2="221.082" y2="583.096" gradientUnits="userSpaceOnUse">
<stop stop-color="#452D2D"/>
<stop offset="1" stop-color="#61371E"/>
</linearGradient>
<linearGradient id="paint8_linear_277_2" x1="207" y1="166.394" x2="207" y2="191.743" gradientUnits="userSpaceOnUse">
<stop stop-color="#4E3330"/>
<stop offset="1" stop-color="#9A726D" stop-opacity="0"/>
</linearGradient>
</defs>
</svg>
