<svg width="414" height="651" viewBox="0 0 414 651" fill="none" xmlns="http://www.w3.org/2000/svg">
<ellipse cx="207" cy="579.427" rx="207" ry="71.5725" fill="#C0C0C0" fill-opacity="0.17"/>
<path d="M359.081 233.657C359.081 249.225 366.826 245.586 216.64 263.463C165.365 263.463 78.8711 264.345 57.9081 253.777C41.4357 222.95 45.5659 239.685 96.8411 239.685C148.116 239.685 359.081 218.09 359.081 233.657Z" fill="url(#paint0_linear_277_4)"/>
<path d="M240.607 286.59C240.607 296.472 174.269 299.264 134.995 299.264C95.7206 299.264 82.1885 296.282 70.9232 291.809C61.7698 291.809 31.6843 261.243 63.368 246.332C94.5373 238.132 240.607 276.708 240.607 286.59Z" fill="url(#paint1_linear_277_4)"/>
<path d="M354.154 245.586C355.483 255.367 276.574 309.568 237.7 315.49C198.826 321.412 69.4881 276.629 57.7361 273.9C38.7245 243.35 115.47 263.478 147.155 259.006C147.155 259.006 352.825 235.804 354.154 245.586Z" fill="url(#paint2_linear_277_4)"/>
<path d="M171.092 301.502C172.692 311.238 289.89 302.483 314.381 297.97C338.873 293.456 362.638 281.11 368.939 275.408C374.647 274.356 372.859 238.761 348.368 243.275C321.309 282.315 169.492 291.766 171.092 301.502Z" fill="url(#paint3_linear_277_4)"/>
<path d="M368.861 412.313C357.455 585.775 302.63 564.146 215.449 564.146C34.5314 564.146 42.9485 499.818 49.285 237.385C123.918 323.123 211.225 294.047 211.225 311.939C345.703 311.939 389.812 93.675 368.861 412.313Z" fill="url(#paint4_linear_277_4)"/>
<path d="M43.0139 405.622C48.0838 598.812 118.989 576.344 149.517 576.344C353.449 587.792 365.597 354.695 369.643 274.662C367.755 280.645 220.995 311.563 156.53 327.27C95.8424 391.597 34.652 86.984 43.0139 405.622Z" fill="url(#paint5_linear_277_4)"/>
<path d="M378.018 405.745C373.482 576.609 337.256 572.134 270.209 576.609C-76.039 599.721 213.965 504.745 209.869 424.646C211.78 430.633 197.855 311.608 263.11 327.328C324.542 391.709 386.482 86.8426 378.018 405.745Z" fill="url(#paint6_linear_277_4)"/>
<path d="M364.714 516.801C352.04 550.936 310.117 583.853 175.849 580.552C100.128 580.552 89.2086 572.498 77.4492 544.227C77.4492 524.165 132.614 556.594 186.959 556.594C241.304 556.594 377.387 482.666 364.714 516.801Z" fill="url(#paint7_linear_277_4)"/>
<path d="M289.577 351.25C276.829 526.865 299.873 534.581 226.818 526.863C143.486 518.06 150.13 541.142 125.326 506.647C125.326 470.584 125.326 421.655 125.326 351.249C125.326 329.952 292.015 317.659 289.577 351.25Z" fill="white"/>
<path d="M359.081 237.221C359.081 256.574 289.1 254.369 202.775 254.369C86.6014 270.025 47.877 256.574 47.877 237.221C47.877 217.869 116.449 202.18 202.775 202.18C289.1 202.18 359.081 217.869 359.081 237.221Z" fill="#582E1F"/>
<ellipse cx="207.448" cy="198.317" rx="138.96" ry="42.2985" fill="#BF774A"/>
<path d="M337.346 200.805C331.304 210.757 272.101 216.563 179.506 216.563C150.052 216.563 88.8796 210.758 80.5723 200.805C97.187 170.947 189.323 166.801 199.896 166.801C216.511 162.654 337.346 171.947 337.346 200.805Z" fill="#F4ECD4"/>
<path d="M341.877 199.146C341.877 212.429 278.85 229.005 206.693 229.005C134.535 229.005 73.0195 212.43 73.0195 199.146C82.8373 204.952 142.088 207.44 214.245 207.44C286.402 207.44 329.038 210.287 341.877 199.146Z" fill="#CF5B13"/>
<path d="M334.326 214.205C347.164 203.063 352.107 222.499 279.949 222.499C207.792 222.499 89.6348 244.077 89.6348 230.793C99.4526 236.599 126.985 263.139 199.142 263.139C271.299 263.139 321.487 225.346 334.326 214.205Z" fill="#CF5B13"/>
<path d="M302.605 215.734C302.605 223.852 245.388 243.933 190.256 243.933C135.125 243.933 88.8789 238.873 88.8789 230.755C96.3802 234.304 140.895 230.755 196.026 230.755C228.594 230.755 292.796 222.543 302.605 215.734Z" fill="#A9491B"/>
<path d="M340.774 209.636C338.788 217.425 187.075 244.985 151.448 249.269C97.5571 255.75 68.7451 215.314 70.732 207.525C76.9514 213.11 98.129 222.262 119.624 227.946C150.694 236.162 329.839 213.317 340.774 209.636Z" fill="#B85425"/>
<path d="M326.695 258.397C404.848 230.409 203.481 251.387 203.481 251.387C117.155 251.387 71.1133 237.968 71.1133 258.397C71.1133 240.296 88.2878 280.463 174.613 280.463C174.613 276.735 240.093 289.41 326.695 258.397Z" fill="#3E150E"/>
<path d="M207 166.394H211.224V191.743H202.775L207 180.56V166.394Z" fill="url(#paint8_linear_277_4)"/>
<path d="M196.633 193.269C367.941 73.746 356.399 152.84 334.924 201.775C304.858 217.859 284.102 222.44 226.983 225.213C169.864 227.986 57.9539 234.137 70.6016 180.8C111.189 189.286 139.514 196.042 196.633 193.269Z" fill="#2F2E2A"/>
<path d="M95.6145 139.508C100.163 141.777 93.6679 174.335 90.517 180.651C87.366 186.967 76.0862 194.454 71.5376 192.185C66.989 189.916 71.7271 168.243 74.8781 161.927C78.0291 155.611 91.0659 137.238 95.6145 139.508Z" fill="#2F2E2A"/>
<path d="M204.785 112.719C233.322 111.334 269.382 112.329 298.024 118.315C312.349 121.308 324.781 125.543 333.489 131.326C342.194 137.107 347.113 144.388 346.59 153.474C346.066 162.598 341.377 169.76 333.697 175.444C325.994 181.144 315.295 185.345 302.825 188.483C277.887 194.759 246.069 196.738 217.501 198.125C188.937 199.512 153.515 200.69 125.507 196.874C111.499 194.966 99.3931 191.814 90.9327 186.846C82.4847 181.885 77.7284 175.153 78.2507 166.07C78.7763 156.93 83.3223 149.213 90.7816 142.712C98.2539 136.199 108.639 130.919 120.785 126.698C145.072 118.257 176.246 114.105 204.785 112.719Z" fill="#25241F" stroke="#A0A0A0"/>
<path d="M207.69 426.121L208.693 427.109L209.962 426.497C219.702 421.795 227.413 419.774 233.366 419.779C239.241 419.784 243.38 421.752 246.238 425.115C249.159 428.553 250.931 433.67 251.53 440.28C252.128 446.869 251.543 454.758 249.928 463.531C248.306 472.343 246.355 478.002 243.96 481.546C241.662 484.948 238.933 486.443 235.37 486.868C231.622 487.315 226.936 486.579 220.809 485.241C218.977 484.841 217.022 484.388 214.944 483.908C210.202 482.81 204.824 481.565 198.828 480.461C182.218 477.404 169.898 468.31 162.487 455.731C155.059 443.123 152.495 426.889 155.691 409.523C157.32 400.677 159.526 395.871 161.989 393.706C163.143 392.691 164.375 392.238 165.771 392.22C167.225 392.2 168.973 392.653 171.075 393.678C175.314 395.745 180.442 399.857 186.606 405.55C191.165 409.761 196.187 414.737 201.735 420.234C203.656 422.137 205.64 424.103 207.69 426.121Z" fill="#774E47" stroke="#B38168" stroke-width="4"/>
<path d="M249.928 463.531C249.111 467.969 248.379 470.682 247.709 472.153C247.631 472.323 247.56 472.464 247.497 472.579C247.422 472.494 247.341 472.396 247.253 472.283C246.849 471.764 246.384 471.037 245.846 470.091C245.025 468.651 244.124 466.868 243.08 464.805C242.745 464.142 242.395 463.45 242.029 462.732C239.06 456.908 235.136 449.599 229.728 443.34C224.306 437.066 217.288 431.724 208.109 430.035C199.307 428.414 191.055 428.423 183.804 428.764C181.39 428.877 179.118 429.024 176.984 429.162C172.599 429.446 168.791 429.692 165.5 429.535C160.636 429.303 157.798 428.203 156.272 425.767C154.63 423.146 154.065 418.354 155.691 409.523C158.879 392.206 165.945 383.671 175.944 379.945C186.236 376.11 200.071 377.17 217.258 380.334C233.472 383.319 243.23 395.081 248.181 410.78C253.148 426.528 253.158 445.981 249.928 463.531Z" fill="#8C5F57" stroke="#B38168" stroke-width="4"/>
<defs>
<linearGradient id="paint0_linear_277_4" x1="158.418" y1="235.148" x2="158.418" y2="263.479" gradientUnits="userSpaceOnUse">
<stop stop-color="#893E19"/>
<stop offset="0.0001" stop-color="#BA4E11"/>
<stop offset="0.614583" stop-color="#5F190C"/>
</linearGradient>
<linearGradient id="paint1_linear_277_4" x1="144.908" y1="245.197" x2="144.908" y2="299.264" gradientUnits="userSpaceOnUse">
<stop stop-color="#5F190C"/>
<stop offset="1" stop-color="#5F190C" stop-opacity="0"/>
</linearGradient>
<linearGradient id="paint2_linear_277_4" x1="252.388" y1="255.069" x2="260.521" y2="308.454" gradientUnits="userSpaceOnUse">
<stop offset="0.526042" stop-color="#5F190C"/>
<stop offset="1" stop-color="#421D10"/>
</linearGradient>
<linearGradient id="paint3_linear_277_4" x1="267.259" y1="258.221" x2="280.072" y2="295.856" gradientUnits="userSpaceOnUse">
<stop stop-color="#50090D"/>
<stop offset="1" stop-color="#411C0F" stop-opacity="0.63"/>
</linearGradient>
<linearGradient id="paint4_linear_277_4" x1="217.402" y1="272.426" x2="217.402" y2="578.954" gradientUnits="userSpaceOnUse">
<stop stop-color="#3C130D"/>
<stop offset="1" stop-color="#542E17" stop-opacity="0.66"/>
</linearGradient>
<linearGradient id="paint5_linear_277_4" x1="149.859" y1="257.515" x2="149.859" y2="577.405" gradientUnits="userSpaceOnUse">
<stop stop-color="#3D190D"/>
<stop offset="1" stop-color="#512B1A"/>
</linearGradient>
<linearGradient id="paint6_linear_277_4" x1="239.417" y1="257.515" x2="239.417" y2="580.138" gradientUnits="userSpaceOnUse">
<stop stop-color="#492014"/>
<stop offset="1" stop-color="#522E18" stop-opacity="0.87"/>
</linearGradient>
<linearGradient id="paint7_linear_277_4" x1="221.082" y1="537.677" x2="221.082" y2="583.096" gradientUnits="userSpaceOnUse">
<stop stop-color="#452D2D"/>
<stop offset="1" stop-color="#61371E"/>
</linearGradient>
<linearGradient id="paint8_linear_277_4" x1="207" y1="166.394" x2="207" y2="191.743" gradientUnits="userSpaceOnUse">
<stop stop-color="#4E3330"/>
<stop offset="1" stop-color="#9A726D" stop-opacity="0"/>
</linearGradient>
</defs>
</svg>
