<svg width="483" height="455" viewBox="0 0 483 455" fill="none" xmlns="http://www.w3.org/2000/svg">
<path d="M468 207C468 312.937 381.469 399 274.5 399C167.531 399 81 312.937 81 207C81 101.063 167.531 15 274.5 15C381.469 15 468 101.063 468 207Z" stroke="#653E39" stroke-width="30"/>
<mask id="path-2-inside-1_310_33" fill="white">
<path d="M52.565 394.138L86.2228 272.846L177.269 377.009L52.565 394.138Z"/>
</mask>
<path d="M52.565 394.138L-24.522 372.747L-57.0437 489.945L63.4515 473.394L52.565 394.138ZM86.2228 272.846L146.456 220.197L48.8095 108.483L9.13572 251.455L86.2228 272.846ZM177.269 377.009L188.156 456.265L335.15 436.074L237.503 324.36L177.269 377.009ZM129.652 415.53L163.31 294.238L9.13572 251.455L-24.522 372.747L129.652 415.53ZM25.9892 325.495L117.036 429.658L237.503 324.36L146.456 220.197L25.9892 325.495ZM166.383 297.753L41.6786 314.883L63.4515 473.394L188.156 456.265L166.383 297.753Z" fill="#653E39" mask="url(#path-2-inside-1_310_33)"/>
<path d="M88.9191 363.165L127.632 250.383L204.498 336L88.9191 363.165Z" fill="white"/>
<path d="M382.5 280.227C382.5 313.916 326 322.404 258 280.227C218.5 255.727 171 192.416 171 158.727C183.5 60.2289 230.5 217.728 258 231.228C284 261.729 356 276.229 382.5 280.227Z" fill="#653E39"/>
<path d="M245 165.229C219.5 200.729 227.5 189.729 214.5 194.229C203.454 194.229 194.095 166.983 194.095 153.728C158.999 148.229 183.001 117.229 201.5 108.229C224.5 103.729 229 109.229 245 165.229Z" fill="#653E39"/>
<path d="M388.509 257.226C387.884 300.931 368.093 293.605 360 304.729C348.5 309.729 342.039 308.542 334.461 297.667C270.001 266.729 313.007 267.728 324.508 244.227C337.006 227.228 329.009 228.227 388.509 257.226Z" fill="#653E39"/>
</svg>
